<?xml version="1.0" standalone="no"?>
<!DOCTYPE svg PUBLIC "-//W3C//DTD SVG 20010904//EN"
 "http://www.w3.org/TR/2001/REC-SVG-20010904/DTD/svg10.dtd">
<svg version="1.0" xmlns="http://www.w3.org/2000/svg"
 width="300.000000pt" height="294.000000pt" viewBox="0 0 300.000000 294.000000"
 preserveAspectRatio="xMidYMid meet">
<metadata>
Created by potrace 1.10, written by Peter Selinger 2001-2011
</metadata>
<g transform="translate(0.000000,294.000000) scale(0.100000,-0.100000)"
fill="#114b91" stroke="none">
<path d="M2280 2535 c-14 -7 -136 -54 -271 -104 l-245 -91 -218 0 -218 0 38
-47 c21 -27 76 -92 121 -145 46 -53 83 -98 83 -100 0 -2 -98 -5 -217 -6 -206
-3 -216 -3 -202 14 8 10 53 65 102 123 48 58 87 111 87 118 0 32 -33 2 -132
-121 l-106 -133 -63 -6 c-34 -4 -79 -7 -100 -7 l-38 0 6 63 c6 69 17 134 27
157 5 12 -15 21 -101 44 -195 51 -328 45 -464 -20 -133 -64 -234 -199 -273
-364 -23 -95 -21 -278 3 -372 57 -222 211 -373 415 -409 123 -21 215 -3 406
80 125 55 144 65 131 69 -6 2 -8 9 -4 15 3 7 -3 3 -15 -7 -12 -11 -22 -16 -22
-12 0 4 -16 -2 -35 -14 -19 -12 -35 -18 -35 -15 0 4 -7 2 -15 -5 -8 -7 -15 -9
-15 -5 0 3 -15 -3 -34 -14 -36 -23 -56 -27 -56 -11 0 6 9 10 20 10 11 0 20 5
20 11 0 5 4 8 9 4 6 -3 20 9 33 26 27 37 62 56 101 54 15 0 27 2 27 6 0 8 73
25 138 33 24 3 47 8 52 11 5 3 12 0 16 -6 4 -7 3 -10 -2 -7 -12 8 -99 -35 -99
-48 0 -17 -28 -39 -55 -42 -34 -4 -44 -16 -145 -177 -195 -309 -236 -362 -310
-396 -50 -23 -137 -25 -155 -4 -11 13 -5 25 34 75 44 57 57 90 37 90 -34 0
-201 -237 -201 -285 0 -33 31 -12 56 38 15 28 27 53 29 55 1 1 19 -5 41 -14
28 -12 58 -15 109 -12 138 9 213 73 349 294 44 71 117 186 162 256 l83 126 81
27 c87 29 100 39 78 61 -11 12 -24 13 -64 4 -27 -5 -94 -19 -149 -31 -55 -11
-119 -23 -143 -26 -33 -4 -46 -12 -57 -32 -31 -61 -168 -106 -301 -99 -98 5
-154 30 -236 106 -67 62 -127 174 -149 277 -18 85 -16 266 5 344 69 265 302
389 528 281 82 -39 89 -48 95 -131 l6 -74 1025 2 c563 1 1026 4 1028 6 3 2
-49 7 -113 10 -118 6 -118 6 -146 39 -16 18 -102 122 -192 230 -149 179 -164
195 -178 180 -13 -15 -2 -32 115 -172 71 -85 152 -181 179 -212 l50 -58 -375
3 c-207 1 -376 3 -376 5 0 5 334 387 384 439 53 55 57 70 16 48z m-91 -86 c-8
-5 -11 -9 -7 -9 4 0 -3 -11 -15 -24 -72 -77 -106 -116 -100 -116 3 0 -9 -15
-28 -33 -19 -18 -50 -52 -70 -77 -20 -25 -47 -56 -60 -70 -13 -14 -31 -36 -39
-48 -14 -21 -24 -23 -139 -26 -104 -3 -126 -1 -138 13 -8 9 -46 54 -85 101
-39 47 -81 97 -94 112 -13 15 -24 31 -24 35 0 5 87 9 193 10 119 1 205 7 227
14 19 7 40 13 45 14 6 1 15 3 20 5 6 1 16 7 24 13 7 6 18 12 25 14 6 1 25 6
41 9 17 4 33 11 36 16 3 5 19 11 35 14 16 3 45 13 66 24 20 10 38 16 41 13 3
-3 16 2 29 11 15 11 24 13 27 5 2 -6 -3 -15 -10 -20z m-1454 -154 c11 -2 21
-4 23 -5 3 -4 20 -7 38 -9 8 0 13 -5 10 -10 -4 -5 2 -8 11 -6 10 1 32 -3 50
-10 17 -7 35 -10 39 -7 4 4 3 0 -2 -8 -11 -19 -14 -35 -16 -80 l-2 -35 -15 38
c-11 31 -25 44 -72 68 -32 16 -66 29 -74 29 -9 0 -14 4 -11 9 4 5 -41 8 -106
7 -114 -2 -131 -7 -218 -57 -63 -36 -158 -170 -176 -249 -25 -107 -31 -291
-12 -374 5 -22 11 -48 13 -56 8 -39 11 -45 23 -58 6 -7 12 -19 12 -25 0 -7 16
-37 35 -66 30 -45 33 -56 23 -70 -11 -14 -11 -14 3 -4 13 11 20 9 37 -10 12
-13 19 -27 15 -32 -5 -4 -3 -5 3 -2 6 3 27 -5 47 -18 20 -14 41 -25 46 -25 6
0 11 -5 11 -11 0 -5 5 -7 10 -4 6 3 10 1 10 -4 0 -6 3 -10 8 -9 4 1 32 -4 63
-11 31 -8 82 -12 113 -9 36 3 56 1 56 -6 0 -8 2 -8 8 0 10 15 72 35 72 24 0
-12 -30 -28 -61 -32 -13 -2 -29 -7 -35 -11 -7 -3 -63 -5 -125 -4 -101 2 -121
6 -176 31 -35 16 -63 33 -63 38 0 5 -4 7 -9 4 -20 -13 -156 137 -146 161 2 8
1 12 -4 9 -15 -10 -53 85 -49 120 2 18 0 31 -4 28 -20 -13 -32 48 -33 171 0
144 8 210 35 270 10 22 21 50 25 63 3 12 11 22 16 22 5 0 9 7 9 16 0 19 110
130 139 139 12 3 21 10 21 14 0 15 94 49 155 56 33 4 62 9 65 12 4 5 106 -3
165 -12z m355 -1065 c-5 -10 -15 -20 -22 -22 -6 -2 -12 -11 -14 -19 -4 -29
-54 -100 -66 -93 -7 4 -8 3 -4 -4 4 -7 -5 -29 -19 -49 -14 -21 -25 -43 -25
-49 0 -6 -6 -17 -14 -23 -10 -9 -16 -8 -26 4 -12 14 -7 20 15 15 6 -1 7 1 3 5
-7 7 69 127 84 133 5 2 8 9 8 15 0 21 70 118 80 112 7 -4 6 -13 0 -25z m-180
-286 c0 -8 -3 -14 -7 -14 -9 0 -40 -49 -60 -93 -8 -18 -17 -26 -25 -21 -7 4
-10 4 -6 -1 10 -11 -11 -47 -23 -40 -5 4 -9 0 -9 -8 0 -7 -11 -24 -25 -37 -14
-13 -25 -19 -25 -14 0 5 -4 4 -8 -1 -8 -12 -58 -45 -68 -45 -4 0 13 14 37 31
48 34 74 58 49 44 -13 -8 12 26 64 86 8 10 26 39 42 65 15 27 32 55 37 61 11
15 27 8 27 -13z"/>
<path d="M2170 2258 c0 -38 0 -38 40 -38 40 0 40 0 40 38 0 37 0 37 -40 37
-40 0 -40 0 -40 -37z m58 -6 c2 -7 -3 -12 -12 -12 -9 0 -16 7 -16 16 0 17 22
14 28 -4z"/>
<path d="M2269 2295 c0 0 -1 -17 -2 -38 -2 -36 -1 -37 36 -37 36 0 37 1 37 38
0 37 -1 38 -35 38 -19 -1 -35 -1 -36 -1z m40 -46 c-16 -10 -23 -4 -14 10 3 6
11 8 17 5 6 -4 5 -9 -3 -15z"/>
<path d="M2174 2201 c-2 -2 -4 -19 -4 -38 0 -32 1 -33 40 -33 40 0 40 0 40 38
0 36 -1 37 -36 37 -20 0 -38 -2 -40 -4z m51 -31 c-3 -5 -10 -10 -16 -10 -5 0
-9 5 -9 10 0 6 7 10 16 10 8 0 12 -4 9 -10z"/>
<path d="M2268 2168 c-4 -38 -3 -38 34 -38 37 0 38 1 38 38 0 36 -1 37 -34 37
-32 0 -35 -2 -38 -37z m37 3 c3 -5 1 -12 -5 -16 -5 -3 -10 1 -10 9 0 18 6 21
15 7z"/>
<path d="M1310 2160 c0 -40 0 -40 39 -40 40 0 40 0 38 37 -3 37 -19 54 -32 33
-4 -6 -2 -16 3 -23 15 -18 -10 -38 -26 -20 -8 8 -9 13 -2 13 5 0 10 9 10 20 0
11 -7 20 -15 20 -11 0 -15 -11 -15 -40z"/>
<path d="M567 1920 c-57 -11 -119 -58 -145 -111 -31 -62 -36 -105 -23 -171 14
-64 66 -133 118 -154 54 -23 146 -18 203 11 187 95 166 382 -32 424 -54 12
-65 12 -121 1z m128 -61 c88 -78 86 -297 -4 -343 -16 -9 -47 -16 -67 -16 -103
0 -180 195 -125 316 25 55 55 74 113 74 39 0 54 -6 83 -31z m115 -90 c11 -39
8 -117 -5 -152 -4 -8 -14 -18 -22 -21 -13 -5 -14 -4 -3 9 18 22 7 147 -20 215
l-21 55 30 -33 c17 -18 35 -51 41 -73z m-357 -26 c-5 -45 11 -126 29 -150 6
-7 7 -17 3 -23 -3 -5 -2 -10 3 -10 5 0 17 -12 27 -26 l17 -27 -35 27 c-20 15
-42 38 -51 51 -19 30 -28 136 -14 175 15 45 27 36 21 -17z"/>
<path d="M1030 1921 c-8 -5 -41 -14 -72 -21 -68 -13 -79 -37 -20 -42 l37 -3 3
-164 c3 -178 -1 -191 -49 -191 -17 0 -29 -5 -29 -12 0 -10 31 -13 120 -13 102
0 120 2 118 15 -2 9 -18 17 -38 20 l-35 5 -3 143 -3 143 35 35 c46 46 103 48
147 5 l29 -29 0 -144 c0 -156 -4 -168 -52 -168 -16 0 -28 -5 -28 -12 0 -10 31
-13 120 -13 106 0 120 2 120 17 0 12 -10 18 -37 20 l-38 3 0 148 0 149 33 29
c42 38 98 40 139 5 l28 -24 2 -172 2 -172 81 -1 c65 -2 80 1 80 13 0 10 -11
15 -31 16 -17 1 -35 7 -40 15 -5 8 -8 79 -8 159 2 172 -7 200 -74 231 -23 10
-49 19 -57 19 -36 0 -89 -23 -127 -55 l-40 -34 -14 25 c-24 46 -106 73 -162
55 -19 -7 -47 -25 -62 -41 -16 -17 -32 -30 -37 -30 -4 0 -8 18 -8 40 0 41 -4
46 -30 31z m231 -34 c13 -6 35 -24 49 -38 23 -22 25 -30 17 -65 -5 -21 -7 -92
-5 -156 3 -100 1 -118 -12 -118 -13 0 -15 20 -12 132 4 148 -5 197 -43 226
-38 30 -34 41 6 19z m319 -25 c0 -7 4 -10 10 -7 15 9 20 -30 22 -193 2 -116 0
-152 -9 -152 -10 0 -13 35 -13 142 0 150 -14 211 -52 223 -10 4 -18 10 -18 15
0 4 14 3 30 -3 17 -6 30 -17 30 -25z m-542 -15 c12 -13 13 -20 5 -25 -17 -10
-28 -227 -15 -274 9 -33 8 -38 -6 -38 -15 0 -17 18 -15 187 2 206 2 204 10
183 3 -8 13 -23 21 -33z"/>
<path d="M2116 1825 c-15 -80 15 -124 164 -238 33 -26 64 -60 78 -87 19 -37
22 -40 22 -19 0 64 -32 120 -127 221 -52 56 -101 114 -109 130 -8 15 -16 28
-18 28 -2 0 -7 -16 -10 -35z m53 -62 c-3 -20 2 -34 10 -29 5 4 22 -8 38 -25
15 -18 36 -40 45 -49 9 -10 14 -21 11 -24 -4 -3 1 -6 10 -6 10 0 17 -2 17 -4
0 -2 3 -12 6 -20 6 -16 -16 -1 -67 47 -10 9 -19 14 -19 10 0 -7 -50 46 -68 72
-13 20 -12 35 3 35 8 0 14 -3 14 -7z"/>
<path d="M2430 1830 c0 -3 17 -14 37 -25 55 -30 193 -171 244 -250 49 -76 94
-175 104 -227 3 -18 8 -42 10 -53 2 -11 4 -40 4 -64 1 -24 4 -42 7 -38 10 10
5 149 -7 187 -6 19 -19 54 -30 77 -10 24 -19 45 -19 48 0 10 -75 123 -114 170
-23 28 -63 71 -91 97 -27 26 -45 48 -40 48 134 9 155 7 182 -19 122 -121 199
-303 191 -450 -12 -212 -175 -341 -431 -341 -155 0 -314 45 -472 135 -43 25
-81 45 -83 45 -12 0 45 -52 72 -67 219 -115 350 -151 528 -141 194 11 343 110
395 263 35 102 16 260 -47 385 -24 48 -123 186 -154 215 -11 10 -286 15 -286
5z"/>
<path d="M2695 1680 c3 -5 8 -10 11 -10 2 0 4 5 4 10 0 6 -5 10 -11 10 -5 0
-7 -4 -4 -10z"/>
<path d="M2225 1528 c-46 -17 -82 -44 -182 -140 -51 -48 -99 -88 -108 -88 -26
0 -16 -18 14 -25 77 -17 141 27 232 156 32 46 59 72 90 87 42 21 43 22 14 21
-16 0 -43 -5 -60 -11z m-78 -105 c-12 -14 -36 -41 -53 -59 -17 -18 -30 -36
-28 -39 2 -3 1 -3 -3 0 -3 3 -12 0 -19 -6 -7 -6 -17 -8 -23 -5 -12 8 90 106
110 106 12 0 12 2 0 9 -11 7 -10 10 5 14 34 8 34 7 11 -20z"/>
<path d="M2228 1424 c-67 -20 -65 -29 5 -29 48 -1 83 -9 154 -38 122 -49 169
-47 231 7 30 26 28 33 -7 28 -16 -2 -84 8 -150 22 -137 29 -166 31 -233 10z
m170 -20 c9 -4 26 -8 37 -9 47 -7 139 -25 142 -29 8 -7 -36 -18 -47 -11 -5 3
-10 2 -10 -4 0 -6 -6 -8 -12 -6 -7 2 -29 6 -49 9 -45 7 -69 16 -69 27 0 4 -17
11 -37 15 -31 6 -34 8 -18 14 20 7 28 6 63 -6z"/>
<path d="M2850 1430 c-13 -8 -12 -10 3 -10 9 0 17 5 17 10 0 12 -1 12 -20 0z"/>
<path d="M2165 1212 c-15 -15 4 -20 90 -21 60 -1 95 2 95 9 0 5 -15 11 -32 12
-85 4 -149 4 -153 0z"/>
<path d="M2360 1198 c0 -4 7 -8 15 -8 8 0 15 4 15 8 0 5 -7 9 -15 9 -8 0 -15
-4 -15 -9z"/>
<path d="M1490 1177 c0 -10 11 -17 27 -19 49 -6 54 -30 51 -285 -2 -141 -7
-236 -13 -242 -6 -6 -21 -12 -35 -14 -13 -2 -26 -9 -28 -15 -5 -16 253 -16
299 0 98 33 159 109 159 194 -1 72 -33 104 -110 107 -22 1 -40 5 -40 9 0 4 4
8 10 8 15 0 80 61 95 89 32 63 20 136 -27 163 -16 9 -79 14 -205 16 -159 3
-183 2 -183 -11z m132 -269 c-2 -223 0 -253 14 -270 16 -17 16 -18 -14 -18
l-31 0 0 264 c0 242 1 265 17 269 9 3 17 5 17 6 0 0 -1 -112 -3 -251z m164
237 c52 -36 71 -141 33 -189 -19 -24 -26 -26 -95 -26 l-74 0 0 103 c0 67 4
107 12 115 17 17 99 15 124 -3z m107 -29 c7 -17 0 -63 -13 -85 -8 -14 -10 -14
-10 -1 -3 33 -11 62 -25 90 -8 16 -15 32 -15 35 0 11 58 -24 63 -39z m-105
-236 c48 -29 72 -75 72 -138 0 -48 -4 -58 -35 -89 -33 -33 -39 -35 -80 -31
-25 3 -56 13 -70 22 -24 16 -25 19 -25 136 l0 120 53 0 c34 0 63 -7 85 -20z
m106 -21 c-2 -4 3 -9 11 -13 20 -7 19 -82 0 -116 -14 -25 -14 -24 -15 18 0 23
-9 61 -20 82 l-20 40 24 -2 c14 -1 23 -5 20 -9z"/>
<path d="M1176 1015 c-81 -29 -145 -118 -153 -215 -9 -91 29 -170 98 -205 41
-22 142 -19 188 4 55 29 108 92 125 152 28 92 15 158 -41 220 -52 57 -133 74
-217 44z m86 -34 c120 -45 160 -263 63 -339 -102 -80 -264 69 -241 222 15 98
93 149 178 117z m93 -9 c31 -26 51 -63 58 -104 8 -53 -6 -47 -22 8 -8 25 -20
48 -27 51 -8 3 -11 9 -8 14 3 5 -1 12 -10 15 -15 6 -31 34 -18 34 4 -1 16 -8
27 -18z m-266 -265 c12 -26 29 -51 37 -54 8 -3 19 -14 25 -25 9 -17 8 -18 -13
-6 -36 21 -80 67 -73 78 3 5 3 10 -2 10 -4 0 -9 21 -9 48 -1 34 0 40 6 22 4
-14 17 -47 29 -73z"/>
</g>
</svg>
